<?xml version="1.0" standalone="no"?>
<!DOCTYPE svg PUBLIC "-//W3C//DTD SVG 20010904//EN"
 "http://www.w3.org/TR/2001/REC-SVG-20010904/DTD/svg10.dtd">
<svg version="1.0" xmlns="http://www.w3.org/2000/svg"
 width="256.000000pt" height="256.000000pt" viewBox="0 0 256.000000 256.000000"
 preserveAspectRatio="xMidYMid meet">
<metadata>
Created by potrace 1.15, written by Peter Selinger 2001-2017
</metadata>
<g transform="translate(0.000000,256.000000) scale(0.100000,-0.100000)"
fill="#000000" stroke="none">
<path d="M845 2400 c-3 -5 -24 -10 -46 -10 l-39 0 0 -248 c0 -229 -1 -250 -18
-266 -11 -9 -32 -42 -48 -74 l-29 -57 0 -398 0 -399 33 -29 c30 -27 38 -29
117 -29 84 0 85 0 100 -30 24 -47 61 -60 170 -60 79 0 95 -3 95 -15 0 -9 11
-27 25 -40 23 -24 30 -25 140 -25 l115 0 0 -230 c0 -261 6 -290 60 -309 18 -6
71 -11 117 -11 93 0 133 15 152 57 7 16 11 177 11 494 l0 471 55 -50 c52 -48
123 -82 169 -82 103 0 209 101 187 177 -19 65 -127 242 -191 313 -18 19 -77
102 -131 183 l-99 148 0 254 0 255 -39 0 c-22 0 -43 5 -46 10 -8 14 -852 14
-860 0z m695 -77 c84 -4 136 -9 125 -14 -17 -7 -18 -8 -2 -8 10 -1 17 -9 17
-21 0 -12 -7 -20 -17 -21 -17 -1 -17 -2 0 -6 19 -5 24 -43 5 -44 -10 0 -10 -2
0 -6 19 -7 15 -43 -5 -43 -11 0 -5 -7 15 -16 45 -23 42 -50 -5 -58 -49 -8
-747 -8 -795 0 -45 8 -48 25 -12 53 15 12 22 21 15 21 -15 0 -14 40 2 41 10 0
10 2 0 6 -7 2 -13 13 -13 24 0 10 6 19 13 20 10 0 10 2 0 6 -7 2 -13 13 -13
24 0 10 6 19 13 19 8 0 7 3 -3 10 -10 6 9 10 60 13 147 6 457 7 600 0z m190
-391 l0 -78 108 -165 c60 -90 119 -173 132 -184 26 -23 131 -178 165 -245 27
-53 21 -77 -25 -110 -88 -63 -203 -12 -286 128 -14 23 -27 42 -29 42 -2 0 -15
-4 -29 -10 l-26 -10 0 -523 c0 -393 -3 -526 -12 -535 -16 -16 -180 -16 -196 0
-9 9 -12 131 -12 486 l0 473 -27 -3 -28 -3 -3 -207 -2 -208 -110 0 -110 0 0
240 0 240 -30 0 -30 0 0 -200 0 -200 -93 0 c-59 0 -97 4 -105 12 -9 9 -12 72
-12 223 0 115 -3 220 -6 233 -4 15 -14 22 -30 22 l-24 0 0 -200 0 -200 -85 0
c-73 0 -86 3 -95 19 -13 25 -14 713 0 760 5 18 27 57 50 87 38 50 40 57 40
124 l0 70 455 0 455 0 0 -78z"/>
</g>
</svg>
