<?xml version="1.0" standalone="no"?>
<!DOCTYPE svg PUBLIC "-//W3C//DTD SVG 20010904//EN"
 "http://www.w3.org/TR/2001/REC-SVG-20010904/DTD/svg10.dtd">
<svg version="1.0" xmlns="http://www.w3.org/2000/svg"
 width="225.000000pt" height="225.000000pt" viewBox="0 0 225.000000 225.000000"
 preserveAspectRatio="xMidYMid meet">
<metadata>
Created by potrace 1.15, written by Peter Selinger 2001-2017
</metadata>
<g transform="translate(0.000000,225.000000) scale(0.100000,-0.100000)"
fill="#000000" stroke="none">
<path d="M937 2165 c-376 -71 -694 -332 -828 -679 -82 -213 -94 -454 -34 -686
87 -337 372 -635 710 -743 135 -43 192 -51 350 -50 167 1 271 22 419 83 334
139 587 465 646 832 18 110 8 331 -19 431 -65 245 -207 461 -400 608 -93 71
-267 154 -386 185 -127 33 -337 42 -458 19z m366 -653 c86 -87 157 -163 157
-169 0 -13 -27 -43 -38 -43 -4 0 -63 56 -132 125 l-125 125 -5 -362 -5 -363
-30 0 -30 0 -5 363 -5 362 -125 -125 c-69 -69 -128 -125 -132 -125 -11 0 -38
30 -38 43 0 21 313 327 335 327 14 0 75 -55 178 -158z m-692 -667 c3 -77 11
-151 17 -165 13 -33 60 -76 95 -89 39 -15 765 -15 804 0 35 13 82 56 95 89 6
14 14 88 17 165 6 134 7 140 28 143 38 6 46 -28 41 -172 -5 -146 -18 -183 -80
-243 -63 -61 -80 -63 -503 -63 -423 0 -440 2 -503 63 -62 60 -75 97 -80 243
-5 144 3 178 41 172 21 -3 22 -9 28 -143z"/>
</g>
</svg>
